<?xml version="1.0" encoding="utf-8"?>
<!-- Generator: Adobe Illustrator 27.5.0, SVG Export Plug-In . SVG Version: 6.00 Build 0)  -->
<svg version="1.1" id="Livello_1" xmlns="http://www.w3.org/2000/svg" xmlns:xlink="http://www.w3.org/1999/xlink" x="0px" y="0px"
	 viewBox="0 0 107.83 107.83" style="enable-background:new 0 0 107.83 107.83;" xml:space="preserve">
<style type="text/css">
	.st0{clip-path:url(#SVGID_00000080925387614203848390000012897428739368088716_);stroke:#000000;stroke-miterlimit:10;}
	.st1{clip-path:url(#SVGID_00000080925387614203848390000012897428739368088716_);fill:#742F17;}
	.st2{fill:#020203;}
	.st3{font-family:'Marmelad-Regular';}
	.st4{font-size:3.3311px;}
</style>
<g>
	<defs>
		<rect id="SVGID_1_" x="-19.91" y="-1.26" width="151.28" height="106.96"/>
	</defs>
	<clipPath id="SVGID_00000067956882078967078220000005059415428361244053_">
		<use xlink:href="#SVGID_1_"  style="overflow:visible;"/>
	</clipPath>
	
		<path style="clip-path:url(#SVGID_00000067956882078967078220000005059415428361244053_);stroke:#000000;stroke-miterlimit:10;" d="
		M105.7,72.52c-0.95,2.04-3.03,3.43-5.36,3.43c-2.89,0-5.34-2.07-5.82-4.92l-3.06-20.11l-3.42-22.44c0,0,0,0,0-0.01l-0.19-1.13
		c0-0.01,0-0.01,0-0.02c-0.43-1.74-1.97-2.95-3.78-2.95c-0.04,0-0.09,0-0.13,0v0c-0.01,0-0.03,0-0.04,0
		c-1.35,0.03-2.53,0.74-3.21,1.83c-0.21,0.34-0.37,0.72-0.47,1.13v0l-0.19,1.13c0,0,0,0,0,0l-0.27,1.78l-2.29,2.29h-0.01l0.04-0.29
		l0.62-4.06c0-0.01,0-0.02,0-0.03l0.19-1.08c0-0.04,0.01-0.08,0.02-0.13c0,0,0-0.01,0-0.01c0.6-2.6,2.85-4.43,5.5-4.5
		c0.04,0,0.07,0,0.11,0c0.04,0,0.09,0,0.13,0c0.47,0,0.92,0.05,1.36,0.16c2.12,0.5,3.8,2.15,4.31,4.35
		c0.01,0.04,0.02,0.09,0.02,0.13l0.18,1.08c0,0.01,0,0.02,0.01,0.04l3.45,22.61l3.04,19.91c0.32,1.9,1.97,3.3,3.91,3.3
		c1.24,0,2.37-0.58,3.1-1.5H105.7z"/>
	
		<path style="clip-path:url(#SVGID_00000067956882078967078220000005059415428361244053_);stroke:#000000;stroke-miterlimit:10;" d="
		M76.18,51.71c0,13.35-10.86,24.21-24.21,24.21c-5.44,0-10.57-1.76-14.85-5.09c-0.01,0-0.01-0.01-0.02-0.01l-0.03-0.02
		c-4.81-3.9-7.93-9.41-8.8-15.52l-0.01-0.04l-3.89-26.78c-0.14-0.77-0.35-1.41-0.6-1.84c-0.01-0.02-0.02-0.04-0.03-0.06
		c-0.66-1.35-2-2.18-3.5-2.18c-1.81,0-3.35,1.22-3.78,2.96v0l-0.19,1.13c0,0,0,0,0,0L9.81,71.01c-0.43,2.55-2.42,4.47-4.89,4.86
		l-2.44,0l0.61-0.94l0.61-0.94c0.09,0.01,0.19,0.01,0.29,0.01c0.56,0,1.09-0.11,1.57-0.32c1.21-0.52,2.12-1.62,2.35-2.99l0.43-2.84
		l6.05-39.68c0-0.01,0-0.02,0-0.03l0.19-1.08c0-0.04,0.01-0.08,0.02-0.13c0.61-2.66,2.94-4.51,5.67-4.51c2.23,0,4.23,1.24,5.22,3.24
		c0.35,0.62,0.62,1.42,0.8,2.4c0,0.02,0.01,0.04,0.01,0.07L30.19,55c0.8,5.61,3.67,10.69,8.1,14.29l0.02,0.02
		c3.94,3.06,8.66,4.68,13.66,4.68c12.28,0,22.28-9.99,22.28-22.28c0-5.15-1.8-10.17-5.06-14.14c-0.56-0.68-1.17-1.34-1.81-1.95
		c-0.01,0-0.01-0.01-0.02-0.01l-0.01-0.01C64.2,32.63,60.03,31,55.64,31c-7.23,0-13.43,4.5-15.93,10.85c0,0,0,0.01,0,0.01
		c-0.76,1.94-1.19,4.05-1.19,6.26c0,2.1,0.37,4.14,1.11,6.09c0.01,0.03,0.02,0.06,0.04,0.09c1.94,5.06,6.86,8.45,12.29,8.45
		c1.37,0,2.69-0.21,3.93-0.6c0.01,0,0.02,0,0.03-0.01c4.99-1.57,8.71-5.65,9.88-10.65l1.08-1.08l0.14-0.14l1.06-1.06
		c-0.43,6.69-4.83,12.43-11.09,14.61c-0.18,0.07-0.37,0.13-0.55,0.18c-0.12,0.04-0.24,0.07-0.36,0.11
		c-0.45,0.13-0.91,0.24-1.38,0.32c-0.89,0.16-1.81,0.25-2.75,0.25c-6.26,0-11.94-3.94-14.13-9.79c-0.82-2.16-1.24-4.43-1.24-6.76
		c0-10.51,8.55-19.05,19.05-19.05c4.89,0,9.53,1.82,13.06,5.14c0.01,0.01,0.02,0.01,0.02,0.02l0.01,0.01
		c0.69,0.66,1.35,1.37,1.96,2.11C74.23,40.66,76.18,46.12,76.18,51.71"/>
	<path style="clip-path:url(#SVGID_00000067956882078967078220000005059415428361244053_);fill:#742F17;" d="M56.07,64.1
		c-0.07,0.02-0.15,0.04-0.22,0.06l-0.19,0.05c-0.19,0.05-0.37,0.09-0.56,0.13c-0.13,0.03-0.27,0.06-0.41,0.08l0-0.01
		C55.16,64.34,55.62,64.23,56.07,64.1"/>
</g>
<text transform="matrix(1 0 0 1 53.8675 74.6517)" class="st2 st3 st4"> </text>
</svg>
